<svg width="12" height="8" viewBox="0 0 12 8" fill="none" xmlns="http://www.w3.org/2000/svg">
<path d="M12 1.08539C12 0.969486 11.9676 0.856222 11.9071 0.760081C11.8465 0.66394 11.7606 0.589291 11.6601 0.545676C11.5597 0.502061 11.4494 0.491464 11.3433 0.515238C11.2372 0.539012 11.1402 0.596077 11.0646 0.679138L6.00129 6.09358L0.937978 0.679138C0.887773 0.62322 0.827638 0.578576 0.761095 0.547821C0.694553 0.517066 0.62294 0.500818 0.550452 0.50003C0.477964 0.499241 0.406059 0.513927 0.338945 0.543227C0.271832 0.572528 0.210859 0.615854 0.159599 0.670668C0.10834 0.725482 0.0678244 0.790682 0.0404243 0.86245C0.0130243 0.934219 -0.000709556 1.01111 2.85845e-05 1.08863C0.000765771 1.16614 0.0159597 1.24272 0.0447206 1.31388C0.0734806 1.38503 0.115229 1.44934 0.16752 1.50303L5.61606 7.32942C5.71824 7.43864 5.85681 7.5 6.00129 7.5C6.14577 7.5 6.28433 7.43864 6.38652 7.32942L11.8351 1.50303C11.8872 1.44873 11.9287 1.3838 11.9571 1.31207C11.9854 1.24034 12 1.16326 12 1.08539Z" fill="#2E2E33"/>
</svg>
