<svg width="21" height="20" viewBox="0 0 21 20" fill="none" xmlns="http://www.w3.org/2000/svg">
<path d="M17.832 8.33342H2.83203M13.6654 1.66675V5.00008M6.9987 1.66675V5.00008M6.83203 18.3334H13.832C15.2322 18.3334 15.9322 18.3334 16.467 18.0609C16.9374 17.8212 17.3199 17.4388 17.5595 16.9684C17.832 16.4336 17.832 15.7335 17.832 14.3334V7.33342C17.832 5.93328 17.832 5.23322 17.5595 4.69844C17.3199 4.22803 16.9374 3.84558 16.467 3.6059C15.9322 3.33341 15.2322 3.33341 13.832 3.33341H6.83203C5.4319 3.33341 4.73183 3.33341 4.19705 3.6059C3.72665 3.84558 3.3442 4.22803 3.10451 4.69844C2.83203 5.23322 2.83203 5.93328 2.83203 7.33341V14.3334C2.83203 15.7335 2.83203 16.4336 3.10451 16.9684C3.3442 17.4388 3.72665 17.8212 4.19705 18.0609C4.73183 18.3334 5.4319 18.3334 6.83203 18.3334Z" stroke="black" stroke-width="1.2" stroke-linecap="square" stroke-linejoin="bevel"/>
</svg>
