<svg width="135" height="25" viewBox="0 0 135 25" fill="none" xmlns="http://www.w3.org/2000/svg">
<rect x="13.5" y="0.978271" width="33" height="23" rx="3.5" fill="#1F72CD"/>
<rect x="13.5" y="0.978271" width="33" height="23" rx="3.5" stroke="#F5F5F5"/>
<path fill-rule="evenodd" clip-rule="evenodd" d="M19.0952 8.97827L15.9141 16.225H19.7223L20.1944 15.0696H21.2735L21.7457 16.225H25.9375V15.3432L26.311 16.225H28.4793L28.8528 15.3245V16.225H37.5706L38.6307 15.0996L39.6232 16.225L44.1009 16.2343L40.9097 12.6219L44.1009 8.97827H39.6927L38.6608 10.0829L37.6995 8.97827H28.2156L27.4013 10.8487L26.5678 8.97827H22.7675V9.83013L22.3447 8.97827H19.0952ZM19.832 10.0073H21.6884L23.7984 14.9214V10.0073H25.8319L27.4617 13.5307L28.9637 10.0073H30.987V15.2073H29.7559L29.7458 11.1326L27.9509 15.2073H26.8495L25.0446 11.1326V15.2073H22.5118L22.0316 14.0416H19.4374L18.9583 15.2063H17.6012L19.832 10.0073ZM37.1196 10.0073H32.1134V15.2043H37.0421L38.6307 13.4819L40.1618 15.2043H41.7624L39.436 12.6209L41.7624 10.0073H40.2313L38.6507 11.7099L37.1196 10.0073ZM20.7351 10.8871L19.8804 12.9639H21.5888L20.7351 10.8871ZM33.3497 12.0332V11.084V11.0831H36.4734L37.8364 12.6012L36.413 14.1276H33.3497V13.0913H36.0808V12.0332H33.3497Z" fill="white"/>
<rect x="57.5" y="0.978271" width="33" height="23" rx="3.5" fill="#F6F6F6"/>
<rect x="57.5" y="0.978271" width="33" height="23" rx="3.5" stroke="#F6F6F6"/>
<path fill-rule="evenodd" clip-rule="evenodd" d="M67.751 16.3366H65.6913L64.1467 10.2707C64.0734 9.99171 63.9178 9.74503 63.6888 9.62877C63.1174 9.3366 62.4877 9.10407 61.8008 8.9868V8.75326H65.1189C65.5768 8.75326 65.9203 9.10407 65.9775 9.5115L66.7789 13.887L68.8376 8.75326H70.8401L67.751 16.3366ZM71.985 16.3366H70.0398L71.6415 8.75326H73.5868L71.985 16.3366ZM76.1035 10.8541C76.1607 10.4456 76.5042 10.2121 76.9049 10.2121C77.5346 10.1535 78.2205 10.2707 78.7929 10.5619L79.1364 8.92918C78.5639 8.69564 77.9343 8.57837 77.3628 8.57837C75.4748 8.57837 74.101 9.62878 74.101 11.0866C74.101 12.1957 75.0741 12.778 75.761 13.1288C76.5042 13.4786 76.7904 13.7121 76.7332 14.0619C76.7332 14.5866 76.1607 14.8202 75.5893 14.8202C74.9024 14.8202 74.2155 14.6453 73.5868 14.3531L73.2433 15.9868C73.9303 16.278 74.6734 16.3953 75.3603 16.3953C77.4773 16.4529 78.7929 15.4035 78.7929 13.8284C78.7929 11.8448 76.1035 11.7286 76.1035 10.8541ZM85.6008 16.3366L84.0562 8.75326H82.3972C82.0537 8.75326 81.7103 8.9868 81.5958 9.3366L78.7356 16.3366H80.7381L81.1378 15.2286H83.5983L83.8273 16.3366H85.6008ZM82.6834 10.7955L83.2548 13.6535H81.653L82.6834 10.7955Z" fill="#172B85"/>
<rect x="101.5" y="0.978271" width="33" height="23" rx="3.5" fill="#F6F6F6"/>
<rect x="101.5" y="0.978271" width="33" height="23" rx="3.5" stroke="#F6F6F6"/>
<path fill-rule="evenodd" clip-rule="evenodd" d="M118.179 17.3078C116.995 18.3058 115.459 18.9083 113.781 18.9083C110.036 18.9083 107 15.9086 107 12.2083C107 8.50799 110.036 5.5083 113.781 5.5083C115.459 5.5083 116.995 6.1108 118.179 7.10884C119.363 6.1108 120.899 5.5083 122.577 5.5083C126.322 5.5083 129.358 8.50799 129.358 12.2083C129.358 15.9086 126.322 18.9083 122.577 18.9083C120.899 18.9083 119.363 18.3058 118.179 17.3078Z" fill="#ED0006"/>
<path fill-rule="evenodd" clip-rule="evenodd" d="M118.18 17.3078C119.638 16.0789 120.562 14.2503 120.562 12.2083C120.562 10.1663 119.638 8.33774 118.18 7.10884C119.364 6.1108 120.9 5.5083 122.578 5.5083C126.323 5.5083 129.359 8.50799 129.359 12.2083C129.359 15.9086 126.323 18.9083 122.578 18.9083C120.9 18.9083 119.364 18.3058 118.18 17.3078Z" fill="#F9A000"/>
<path fill-rule="evenodd" clip-rule="evenodd" d="M118.179 17.3078C119.637 16.0789 120.562 14.2503 120.562 12.2083C120.562 10.1664 119.637 8.33779 118.179 7.10889C116.721 8.33779 115.797 10.1664 115.797 12.2083C115.797 14.2503 116.721 16.0789 118.179 17.3078Z" fill="#FF5E00"/>
</svg>
