<svg width="261" height="20" viewBox="0 0 261 20" fill="none" xmlns="http://www.w3.org/2000/svg">
<path d="M134.353 17.7653L119.589 0.757812H114.645V19.2422H119.325V7.03227L129.92 19.2422H139.065V0.757812H134.353V17.7653Z" fill="#2E2E33"/>
<path d="M148.833 0.757812H143.988V19.2422H148.833V0.757812Z" fill="#2E2E33"/>
<path d="M165.843 0.757812H160.405L151.25 19.2422H174.998L165.843 0.757812ZM158.32 15.389L163.11 5.6245L167.839 15.389H158.32Z" fill="#2E2E33"/>
<path d="M47.5484 15.4167C50.9086 14.4758 53.0174 12.0269 53.0174 8.33974C53.0174 3.37275 49.3931 0.757812 44.0202 0.757812H29.1562V19.2422H34.0012V15.8871H42.436L44.5208 19.2422H49.9897L47.5415 15.4167H47.5484ZM43.7596 11.7606H34.0046V4.95001H43.7596C46.5952 4.95001 48.2067 6.19176 48.2067 8.37087C48.2067 10.55 46.5918 11.7606 43.7596 11.7606Z" fill="#2E2E33"/>
<path d="M12.0934 0.757812H0V19.2422H4.74548V4.9846H12.0934C17.4972 4.9846 20.6929 8.03881 20.6929 12.8017C20.6929 15.6553 19.5237 17.9036 17.4149 19.2422H23.9331C25.0372 17.447 25.6338 15.2748 25.6338 12.8017C25.6372 5.45501 20.398 0.757812 12.0934 0.757812Z" fill="#2E2E33"/>
<path d="M60.8019 0.757812H55.957V19.2422H60.8019V0.757812Z" fill="#2E2E33"/>
<path d="M97.8385 0.757812L88.6836 19.2422H112.432L103.277 0.757812H97.8385ZM95.7161 15.389L100.54 5.6245L105.293 15.389H95.7161Z" fill="#2E2E33"/>
<path d="M77.0491 19.2422L67.8907 0.757812H62.6172L71.7961 19.2422H77.0491Z" fill="#2E2E33"/>
<path d="M92.0755 0.757812H86.9014L77.7773 19.2422H82.8966L92.0755 0.757812Z" fill="#2E2E33"/>
<path d="M193.52 12.1622C193.325 11.1122 192.665 9.73219 190.61 9.73219C188.24 9.73219 187.34 11.7422 187.34 13.8722C187.34 16.0172 188.24 18.0272 190.61 18.0272C192.68 18.0272 193.415 16.6472 193.52 15.3422H195.245C195.005 17.7272 193.34 19.4522 190.625 19.4522C187.58 19.4522 185.63 17.1122 185.63 13.8872C185.63 10.6472 187.595 8.30719 190.64 8.30719C193.34 8.30719 194.99 10.0172 195.245 12.1622H193.52ZM201.588 14.3372C201.588 13.3172 201.138 12.6272 200.043 12.6272C198.783 12.6272 197.973 13.3922 197.973 14.5472V19.2422H196.503V8.51719H197.973V12.5522H198.003C198.408 11.9672 199.203 11.3672 200.523 11.3672C201.933 11.3672 203.073 12.1772 203.073 13.9322V19.2422H201.588V14.3372ZM206.719 19.4522C205.189 19.4522 204.214 18.5672 204.214 17.2622C204.214 15.5522 205.504 15.0572 207.409 14.6822C208.609 14.4572 209.344 14.3072 209.344 13.5572C209.344 13.0022 209.014 12.5372 207.889 12.5372C206.554 12.5372 206.149 12.9572 206.074 13.9772H204.574C204.649 12.5072 205.609 11.3522 207.949 11.3522C209.524 11.3522 210.784 12.0122 210.784 13.9922V17.5022C210.784 18.0572 210.859 18.3422 211.144 18.3422C211.189 18.3422 211.234 18.3422 211.324 18.3272V19.2272C211.069 19.2872 210.814 19.3172 210.574 19.3172C209.854 19.3172 209.449 19.0322 209.374 18.1622H209.344C208.834 18.9572 207.964 19.4522 206.719 19.4522ZM207.049 18.2672C208.369 18.2672 209.344 17.5922 209.344 16.2572V15.1622C209.104 15.3872 208.444 15.5522 207.664 15.7172C206.314 16.0022 205.759 16.3622 205.759 17.1572C205.759 17.8772 206.134 18.2672 207.049 18.2672ZM213.777 16.4822C213.777 17.5172 214.227 18.2072 215.322 18.2072C216.582 18.2072 217.392 17.4422 217.392 16.2872V11.5922H218.862V19.2422H217.392V18.2822H217.362C216.957 18.8672 216.162 19.4522 214.842 19.4522C213.432 19.4522 212.292 18.6422 212.292 16.8872V11.5922H213.777V16.4822ZM219.929 12.8072V11.5922H220.979V10.6622C220.979 8.89219 221.714 8.41219 222.959 8.41219C223.229 8.41219 223.469 8.44219 223.889 8.50219V9.68719C223.589 9.65719 223.469 9.64219 223.259 9.64219C222.644 9.64219 222.449 9.82219 222.449 10.6322V11.5922H224.894V10.6622C224.894 8.89219 225.629 8.41219 226.874 8.41219C227.144 8.41219 227.384 8.44219 227.804 8.50219V9.68719C227.504 9.65719 227.384 9.64219 227.174 9.64219C226.559 9.64219 226.364 9.82219 226.364 10.6322V11.5922H227.804V12.8072H226.364V19.2422H224.894V12.8072H222.449V19.2422H220.979V12.8072H219.929ZM231.945 19.4672C229.515 19.4672 228.165 17.7422 228.165 15.4022C228.165 13.0022 229.605 11.3522 231.945 11.3522C234.27 11.3522 235.575 12.8822 235.575 15.2522C235.575 15.4622 235.575 15.6872 235.56 15.8072H229.68C229.71 17.0972 230.46 18.2672 231.975 18.2672C233.325 18.2672 233.835 17.3972 233.985 16.8872H235.47C235.08 18.3572 233.955 19.4672 231.945 19.4672ZM231.9 12.5522C230.67 12.5522 229.77 13.3922 229.68 14.6522H234.03C234.03 13.4522 233.205 12.5522 231.9 12.5522ZM238.211 16.4822C238.211 17.5172 238.661 18.2072 239.756 18.2072C241.016 18.2072 241.826 17.4422 241.826 16.2872V11.5922H243.296V19.2422H241.826V18.2822H241.796C241.391 18.8672 240.596 19.4522 239.276 19.4522C237.866 19.4522 236.726 18.6422 236.726 16.8872V11.5922H238.211V16.4822ZM244.945 11.5922H246.415V13.0472H246.445C246.835 12.0872 247.465 11.4122 248.5 11.4122C248.77 11.4122 248.98 11.4272 249.205 11.4572V12.8672C249.01 12.8372 248.875 12.8222 248.71 12.8222C247.375 12.8222 246.415 13.8272 246.415 15.2822V19.2422H244.945V11.5922ZM253.46 14.6222C254.855 14.9522 256.385 15.3572 256.385 17.0672C256.385 18.5522 255.245 19.4522 253.235 19.4522C250.91 19.4522 249.755 18.2522 249.71 16.6922H251.195C251.27 17.5772 251.795 18.2672 253.22 18.2672C254.51 18.2672 254.855 17.6972 254.855 17.1422C254.855 16.1822 253.835 16.0772 252.845 15.8672C251.51 15.5672 249.98 15.1622 249.98 13.5722C249.98 12.2522 251.045 11.3672 252.905 11.3672C254.99 11.3672 255.995 12.4922 256.1 13.8122H254.615C254.51 13.2272 254.21 12.5522 252.92 12.5522C251.945 12.5522 251.51 12.9422 251.51 13.5122C251.51 14.3072 252.365 14.3672 253.46 14.6222Z" fill="#2E2E33"/>
</svg>
