<svg width="135" height="39" viewBox="0 0 135 39" fill="none" xmlns="http://www.w3.org/2000/svg">
<path d="M103.646 13.8015L92.2557 0H88.4414V15H92.052V5.09169L100.225 15H107.28V0H103.646V13.8015Z" fill="white"/>
<path d="M114.816 0H111.078V15H114.816V0Z" fill="white"/>
<path d="M127.937 0H123.742L116.68 15H135L127.937 0ZM122.134 11.8731L125.829 3.94929L129.477 11.8731H122.134Z" fill="white"/>
<path d="M36.6806 11.8956C39.2728 11.1321 40.8995 9.14484 40.8995 6.1527C40.8995 2.12201 38.1036 0 33.9587 0H22.4922V15H26.2297V12.2773H32.7367L34.3449 15H38.5639L36.6753 11.8956H36.6806ZM33.7577 8.92871H26.2324V3.40195H33.7577C35.9452 3.40195 37.1884 4.40962 37.1884 6.17796C37.1884 7.9463 35.9426 8.92871 33.7577 8.92871Z" fill="white"/>
<path d="M9.3293 0H0V15H3.66083V3.43002H9.3293C13.498 3.43002 15.9632 5.9085 15.9632 9.77358C15.9632 12.0893 15.0613 13.9137 13.4345 15H18.4629C19.3146 13.5432 19.7748 11.7805 19.7748 9.77358C19.7775 3.81175 15.7358 0 9.3293 0Z" fill="white"/>
<path d="M46.9055 0H43.168V15H46.9055V0Z" fill="white"/>
<path d="M75.4765 0L68.4141 15H86.7341L79.6716 0H75.4765ZM73.8392 11.8731L77.5608 3.94929L81.227 11.8731H73.8392Z" fill="white"/>
<path d="M59.438 15L52.3729 0H48.3047L55.3856 15H59.438Z" fill="white"/>
<path d="M71.034 0H67.0425L60.0039 15H63.9531L71.034 0Z" fill="white"/>
<path d="M7.952 28.392C7.77 27.412 7.154 26.124 5.236 26.124C3.024 26.124 2.184 28 2.184 29.988C2.184 31.99 3.024 33.866 5.236 33.866C7.168 33.866 7.854 32.578 7.952 31.36H9.562C9.338 33.586 7.784 35.196 5.25 35.196C2.408 35.196 0.588 33.012 0.588 30.002C0.588 26.978 2.422 24.794 5.264 24.794C7.784 24.794 9.324 26.39 9.562 28.392H7.952ZM15.4818 30.422C15.4818 29.47 15.0618 28.826 14.0398 28.826C12.8638 28.826 12.1078 29.54 12.1078 30.618V35H10.7358V24.99H12.1078V28.756H12.1358C12.5138 28.21 13.2558 27.65 14.4878 27.65C15.8038 27.65 16.8678 28.406 16.8678 30.044V35H15.4818V30.422ZM20.2713 35.196C18.8433 35.196 17.9333 34.37 17.9333 33.152C17.9333 31.556 19.1373 31.094 20.9153 30.744C22.0353 30.534 22.7213 30.394 22.7213 29.694C22.7213 29.176 22.4133 28.742 21.3633 28.742C20.1173 28.742 19.7393 29.134 19.6693 30.086H18.2693C18.3393 28.714 19.2353 27.636 21.4193 27.636C22.8893 27.636 24.0653 28.252 24.0653 30.1V33.376C24.0653 33.894 24.1353 34.16 24.4013 34.16C24.4433 34.16 24.4853 34.16 24.5693 34.146V34.986C24.3313 35.042 24.0933 35.07 23.8693 35.07C23.1973 35.07 22.8193 34.804 22.7493 33.992H22.7213C22.2453 34.734 21.4333 35.196 20.2713 35.196ZM20.5793 34.09C21.8113 34.09 22.7213 33.46 22.7213 32.214V31.192C22.4973 31.402 21.8813 31.556 21.1533 31.71C19.8933 31.976 19.3753 32.312 19.3753 33.054C19.3753 33.726 19.7253 34.09 20.5793 34.09ZM26.8585 32.424C26.8585 33.39 27.2785 34.034 28.3005 34.034C29.4765 34.034 30.2325 33.32 30.2325 32.242V27.86H31.6045V35H30.2325V34.104H30.2045C29.8265 34.65 29.0845 35.196 27.8525 35.196C26.5365 35.196 25.4725 34.44 25.4725 32.802V27.86H26.8585V32.424ZM32.6 28.994V27.86H33.58V26.992C33.58 25.34 34.266 24.892 35.428 24.892C35.68 24.892 35.904 24.92 36.296 24.976V26.082C36.016 26.054 35.904 26.04 35.708 26.04C35.134 26.04 34.952 26.208 34.952 26.964V27.86H37.234V26.992C37.234 25.34 37.92 24.892 39.082 24.892C39.334 24.892 39.558 24.92 39.95 24.976V26.082C39.67 26.054 39.558 26.04 39.362 26.04C38.788 26.04 38.606 26.208 38.606 26.964V27.86H39.95V28.994H38.606V35H37.234V28.994H34.952V35H33.58V28.994H32.6ZM43.8152 35.21C41.5472 35.21 40.2872 33.6 40.2872 31.416C40.2872 29.176 41.6312 27.636 43.8152 27.636C45.9852 27.636 47.2032 29.064 47.2032 31.276C47.2032 31.472 47.2032 31.682 47.1892 31.794H41.7012C41.7292 32.998 42.4292 34.09 43.8432 34.09C45.1032 34.09 45.5792 33.278 45.7192 32.802H47.1052C46.7412 34.174 45.6912 35.21 43.8152 35.21ZM43.7732 28.756C42.6252 28.756 41.7852 29.54 41.7012 30.716H45.7612C45.7612 29.596 44.9912 28.756 43.7732 28.756ZM49.6631 32.424C49.6631 33.39 50.0831 34.034 51.1051 34.034C52.2811 34.034 53.0371 33.32 53.0371 32.242V27.86H54.4091V35H53.0371V34.104H53.0091C52.6311 34.65 51.8891 35.196 50.6571 35.196C49.3411 35.196 48.2771 34.44 48.2771 32.802V27.86H49.6631V32.424ZM55.9487 27.86H57.3207V29.218H57.3487C57.7127 28.322 58.3007 27.692 59.2667 27.692C59.5187 27.692 59.7147 27.706 59.9247 27.734V29.05C59.7427 29.022 59.6167 29.008 59.4627 29.008C58.2167 29.008 57.3207 29.946 57.3207 31.304V35H55.9487V27.86ZM63.8959 30.688C65.1979 30.996 66.6259 31.374 66.6259 32.97C66.6259 34.356 65.5619 35.196 63.6859 35.196C61.5159 35.196 60.4379 34.076 60.3959 32.62H61.7819C61.8519 33.446 62.3419 34.09 63.6719 34.09C64.8759 34.09 65.1979 33.558 65.1979 33.04C65.1979 32.144 64.2459 32.046 63.3219 31.85C62.0759 31.57 60.6479 31.192 60.6479 29.708C60.6479 28.476 61.6419 27.65 63.3779 27.65C65.3239 27.65 66.2619 28.7 66.3599 29.932H64.9739C64.8759 29.386 64.5959 28.756 63.3919 28.756C62.4819 28.756 62.0759 29.12 62.0759 29.652C62.0759 30.394 62.8739 30.45 63.8959 30.688Z" fill="white"/>
</svg>
