<svg width="18" height="18" viewBox="0 0 18 18" fill="none" xmlns="http://www.w3.org/2000/svg">
<rect width="18" height="18" rx="9" fill="#BF3032"/>
<path d="M9 7.52649V9.08542M9 10.6444H9.0039M8.46034 5.53562L5.25483 11.0724C5.07703 11.3795 4.98813 11.5331 5.00127 11.6591C5.01273 11.769 5.07032 11.8689 5.15971 11.9339C5.2622 12.0084 5.43963 12.0084 5.79449 12.0084H12.2055C12.5604 12.0084 12.7378 12.0084 12.8403 11.9339C12.9297 11.8689 12.9873 11.769 12.9987 11.6591C13.0119 11.5331 12.923 11.3795 12.7452 11.0724L9.53966 5.53562C9.3625 5.22962 9.27392 5.07661 9.15835 5.02523C9.05754 4.9804 8.94246 4.9804 8.84165 5.02523C8.72608 5.07661 8.6375 5.22962 8.46034 5.53562Z" stroke="white" stroke-width="0.5" stroke-linecap="square" stroke-linejoin="bevel"/>
</svg>
